PathFileType	4	(X/Y/Z)	C:\Users\WrightLab\Desktop\Jo\P2_Trial15.trc
DataRate	CameraRate	NumFrames	NumMarkers	Units	OrigDataRate	OrigDataStartFrame	OrigNumFrames
100.00	100.00	       9	19	mm	100.00	331	       440
Frame#	Time	Headset_Front			Headset_Back			Headset_Left			Headset_Right			Left_Shoulder			Right_Shoulder			Sternum			C7			Left Elbow			Right Elbow			Left Wrist			Right Wrist			Left ASIS			Right ASIS			S2			Left Knee			Right Knee			Left Ankle			Right Ankle			
		X1	Y1	Z1	X2	Y2	Z2	X3	Y3	Z3	X4	Y4	Z4	X5	Y5	Z5	X6	Y6	Z6	X7	Y7	Z7	X8	Y8	Z8	X9	Y9	Z9	X10	Y10	Z10	X11	Y11	Z11	X12	Y12	Z12	X13	Y13	Z13	X14	Y14	Z14	X15	Y15	Z15	X16	Y16	Z16	X17	Y17	Z17	X18	Y18	Z18	X19	Y19	Z19	

331	3.300	18.68824	1503.56396	2095.84082				59.47435	1723.25708	1879.69604	-73.68768	1587.44910	2011.21021	-4.36888	1060.73230	1980.81018	-124.17252	1453.59717	1856.89209	45.13955	1366.04333	1940.26160				336.90057	1161.99292	1937.68469	-194.71423	1120.89673	1848.10107	367.23129	928.79236	1997.00781	-218.79054	894.89099	1976.27820	121.04126	1090.19739	2000.13147				129.60773	977.12335	1748.25562	194.24873	523.68854	2046.67737	-75.48278	564.71747	1924.00012	42.04521	204.33049	2029.99365	-68.05643	323.44748	1723.93823	
332	3.310	18.25199	1507.70129	2104.98804	153.37013	1618.53894	1990.53284	57.75220	1726.46875	1887.37781	-74.45524	1590.68237	2019.69153	-4.93667	1063.80457	1991.77551	-125.89658	1456.17456	1868.21387	44.91136	1368.76782	1949.30249				334.84708	1165.14319	1946.08826	-199.68443	1123.74927	1858.05640	362.25601	932.76007	2009.82507	-229.51602	895.61444	1979.61621	120.89301	1093.34656	2009.02356				124.90328	979.48914	1756.83801	194.25929	523.47705	2047.18127	-87.23363	571.14014	1950.74194	48.06126	201.80597	2027.55542	-81.22061	326.34854	1752.11377	
333	3.320	17.71659	1511.91443	2114.05566	152.09776	1621.29138	1997.13196	55.53146	1729.39478	1894.48547	-75.55682	1593.89307	2027.76904	-5.07922	1067.62646	2001.32166	-126.68597	1458.63135	1878.26453	44.37836	1371.57104	1959.02734				332.29019	1166.17346	1952.44421	-204.62340	1126.66614	1867.21350	357.72107	936.34412	2020.40930	-239.45987	896.68262	1984.30994	121.06377	1095.88953	2017.54004				119.85934	981.55286	1764.46997	195.30531	523.18884	2049.26074	-99.00470	578.76819	1974.04480	52.65401	200.93967	2027.71106	-93.71992	329.20511	1778.93188	
334	3.330	17.26400	1516.01257	2123.00684				54.14722	1732.16309	1902.06506	-76.71268	1597.08984	2035.59570	-5.09305	1069.76819	2011.09741	-128.16611	1461.01270	1890.38977	44.33294	1373.99768	1968.25940				332.10342	1170.90527	1962.87341	-209.59673	1129.81641	1876.69214	353.12662	940.27820	2032.96582	-249.35399	897.79620	1988.30798	121.22052	1098.21436	2026.25464				114.48711	983.34363	1772.57349	195.45668	522.97253	2049.59668	-109.65208	587.00653	1995.92542	59.06551	197.71724	2025.77295	-106.58100	330.15250	1807.27307	
335	3.340	16.69745	1520.14111	2132.34668				52.46740	1734.40771	1908.40979	-77.64167	1600.05078	2044.65625	-5.50186	1072.20007	2021.29871	-129.30435	1462.95557	1903.06445	44.30423	1376.08789	1977.70959				330.59622	1173.38794	1970.79053	-214.80875	1132.89990	1886.53809	348.83075	943.74811	2043.71497	-258.88409	899.43134	1993.06738	121.25978	1100.08899	2034.48865				109.28536	985.38275	1780.42957	196.20567	521.72089	2050.97534	-119.52238	595.65009	2015.16028	63.99245	195.58835	2026.16614	-117.25403	331.20615	1834.30432	
336	3.350	16.26109	1524.34082	2141.64233	149.25310	1633.12219	2022.53198	51.18359	1736.33044	1915.40027	-78.18826	1602.91943	2053.35425	-6.22603	1074.63696	2031.82556	-130.28262	1465.71997	1916.02258	44.81839	1378.02588	1985.87390				329.31711	1175.67297	1977.85071	-219.69946	1135.91162	1897.29126	344.62665	947.14850	2053.93921	-268.03714	900.70569	1997.35425	121.87767	1101.17468	2041.84314				103.60541	986.85846	1788.98511	197.47136	518.94684	2051.45605	-127.93858	603.20081	2038.49133	68.82402	192.84497	2025.68262	-129.30653	331.75015	1863.09216	
337	3.360	15.61870	1528.24011	2150.59766	148.67409	1635.55725	2028.65503	49.97217	1737.99731	1921.34534	-79.09913	1605.44507	2062.12866	-5.74589	1076.63330	2041.08606	-130.85745	1468.13818	1928.97229	44.99630	1379.54187	1995.12048				326.48904	1175.16492	1981.85303	-224.45978	1138.99182	1907.69373	340.28815	951.59894	2065.29614	-277.37506	902.88678	2001.70203	122.41701	1102.04822	2049.71948				97.20683	987.70648	1795.92114	197.43364	516.85925	2051.63989	-135.44215	609.97369	2055.71387	72.28590	191.05763	2026.52563	-138.75917	330.26166	1889.05164	
338	3.370	15.39790	1532.37061	2159.53613				48.26006	1739.69214	1929.07654	-79.69442	1608.00208	2069.87744	-5.69051	1077.97437	2051.13989	-131.41182	1469.34570	1940.64050	45.63232	1381.59106	2003.72083				327.12515	1179.86230	1991.66858	-229.16832	1141.87231	1919.05847	336.51578	953.79181	2074.48950	-285.53467	904.64478	2006.54529	122.63395	1102.54004	2056.67261				90.97080	988.46771	1805.08069	199.44070	514.68689	2050.65576	-141.67880	618.09772	2075.98120	73.47517	190.78224	2028.93408	-148.79649	327.68143	1915.64355	
339	3.380	15.29585	1536.31921	2168.71729				46.40166	1741.61902	1935.74243	-80.48557	1610.67017	2077.69116	-5.11708	1079.00110	2061.03101	-131.71469	1471.22961	1954.02661	46.82584	1382.68176	2011.69092				324.04996	1179.03870	1994.49390	-233.65230	1144.58447	1931.75977	332.71561	957.11157	2084.93604	-293.69592	906.38641	2011.48291	123.30588	1102.41199	2063.94214				84.32386	988.63361	1812.18945	201.02545	512.13196	2050.62280	-146.57895	623.87695	2095.57300	73.92620	189.49374	2031.47803	-158.32507	322.38821	1943.85156	
